{
    "asset" : {
        "generator" : "Khronos glTF Blender I/O v3.4.50",
        "version" : "2.0"
    },
    "scene" : 0,
    "scenes" : [
        {
            "name" : "Scene",
            "nodes" : [
                0
            ]
        }
    ],
    "nodes" : [
        {
            "mesh" : 0,
            "name" : "Rock Pool",
            "scale" : [
                -0.5278226137161255,
                -1.3116991519927979,
                -0.5278226137161255
            ],
            "translation" : [
                0,
                1,
                5.251800060272217
            ]
        }
    ],
    "animations" : [
        {
            "channels" : [
                {
                    "sampler" : 0,
                    "target" : {
                        "node" : 0,
                        "path" : "translation"
                    }
                },
                {
                    "sampler" : 1,
                    "target" : {
                        "node" : 0,
                        "path" : "rotation"
                    }
                },
                {
                    "sampler" : 2,
                    "target" : {
                        "node" : 0,
                        "path" : "scale"
                    }
                }
            ],
            "name" : "Rock Pool",
            "samplers" : [
                {
                    "input" : 4,
                    "interpolation" : "LINEAR",
                    "output" : 5
                },
                {
                    "input" : 4,
                    "interpolation" : "LINEAR",
                    "output" : 6
                },
                {
                    "input" : 4,
                    "interpolation" : "LINEAR",
                    "output" : 7
                }
            ]
        }
    ],
    "meshes" : [
        {
            "name" : "Cube.001",
            "primitives" : [
                {
                    "attributes" : {
                        "POSITION" : 0,
                        "TEXCOORD_0" : 1,
                        "NORMAL" : 2
                    },
                    "indices" : 3
                }
            ]
        }
    ],
    "accessors" : [
        {
            "bufferView" : 0,
            "componentType" : 5126,
            "count" : 825,
            "max" : [
                11.913314819335938,
                1.0101641416549683,
                24.11341094970703
            ],
            "min" : [
                -12.930093765258789,
                -2.6271634101867676,
                -2.7848739624023438
            ],
            "type" : "VEC3"
        },
        {
            "bufferView" : 1,
            "componentType" : 5126,
            "count" : 825,
            "type" : "VEC2"
        },
        {
            "bufferView" : 2,
            "componentType" : 5126,
            "count" : 825,
            "type" : "VEC3"
        },
        {
            "bufferView" : 3,
            "componentType" : 5123,
            "count" : 1275,
            "type" : "SCALAR"
        },
        {
            "bufferView" : 4,
            "componentType" : 5126,
            "count" : 2,
            "max" : [
                0.125
            ],
            "min" : [
                0.08333333333333333
            ],
            "type" : "SCALAR"
        },
        {
            "bufferView" : 5,
            "componentType" : 5126,
            "count" : 2,
            "type" : "VEC3"
        },
        {
            "bufferView" : 6,
            "componentType" : 5126,
            "count" : 2,
            "type" : "VEC4"
        },
        {
            "bufferView" : 7,
            "componentType" : 5126,
            "count" : 2,
            "type" : "VEC3"
        }
    ],
    "bufferViews" : [
        {
            "buffer" : 0,
            "byteLength" : 9900,
            "byteOffset" : 0,
            "target" : 34962
        },
        {
            "buffer" : 0,
            "byteLength" : 6600,
            "byteOffset" : 9900,
            "target" : 34962
        },
        {
            "buffer" : 0,
            "byteLength" : 9900,
            "byteOffset" : 16500,
            "target" : 34962
        },
        {
            "buffer" : 0,
            "byteLength" : 2550,
            "byteOffset" : 26400,
            "target" : 34963
        },
        {
            "buffer" : 0,
            "byteLength" : 8,
            "byteOffset" : 28952
        },
        {
            "buffer" : 0,
            "byteLength" : 24,
            "byteOffset" : 28960
        },
        {
            "buffer" : 0,
            "byteLength" : 32,
            "byteOffset" : 28984
        },
        {
            "buffer" : 0,
            "byteLength" : 24,
            "byteOffset" : 29016
        }
    ],
    "buffers" : [
        {
            "byteLength" : 29040,
            "uri" : "data:application/octet-stream;base64,"
        }
    ]
}
