{
    "asset" : {
        "generator" : "Khronos glTF Blender I/O v3.4.50",
        "version" : "2.0"
    },
    "scene" : 0,
    "scenes" : [
        {
            "name" : "Scene",
            "nodes" : [
                0
            ]
        }
    ],
    "nodes" : [
        {
            "mesh" : 0,
            "name" : "Tree",
            "translation" : [
                -4.877742767333984,
                0.13965845108032227,
                -20.70722198486328
            ]
        }
    ],
    "meshes" : [
        {
            "name" : "Cube.002",
            "primitives" : [
                {
                    "attributes" : {
                        "POSITION" : 0,
                        "NORMAL" : 1
                    },
                    "indices" : 2
                }
            ]
        }
    ],
    "accessors" : [
        {
            "bufferView" : 0,
            "componentType" : 5126,
            "count" : 6650,
            "max" : [
                8.521657943725586,
                10.362028121948242,
                18.976430892944336
            ],
            "min" : [
                -0.33937549591064453,
                -2.2852869033813477,
                5.268884658813477
            ],
            "type" : "VEC3"
        },
        {
            "bufferView" : 1,
            "componentType" : 5126,
            "count" : 6650,
            "type" : "VEC3"
        },
        {
            "bufferView" : 2,
            "componentType" : 5123,
            "count" : 9942,
            "type" : "SCALAR"
        }
    ],
    "bufferViews" : [
        {
            "buffer" : 0,
            "byteLength" : 79800,
            "byteOffset" : 0,
            "target" : 34962
        },
        {
            "buffer" : 0,
            "byteLength" : 79800,
            "byteOffset" : 79800,
            "target" : 34962
        },
        {
            "buffer" : 0,
            "byteLength" : 19884,
            "byteOffset" : 159600,
            "target" : 34963
        }
    ],
    "buffers" : [
        {
            "byteLength" : 179484,
            "uri" : "data:application/octet-stream;base64,"
        }
    ]
}
